<?xml version="1.0" encoding="UTF-8"?>
<svg width="40px" height="38px" viewBox="0 0 40 38" version="1.1" xmlns="http://www.w3.org/2000/svg" xmlns:xlink="http://www.w3.org/1999/xlink">
    <title>Calendar</title>
    <g id="PDF" stroke="none" stroke-width="1" fill="none" fill-rule="evenodd">
        <g id="Artboard-rev" transform="translate(-1806.000000, -481.000000)" fill="#FFFFFF" fill-rule="nonzero">
            <g id="Calendar" transform="translate(1806.000000, 481.000000)">
                <path d="M0,10.8539945 L39.9504132,10.8539945 L39.9504132,33.0964187 C39.9504132,35.4798898 38.2269972,37.2561983 35.8325069,37.3421488 C35.6672176,37.3487603 35.5019284,37.3421488 35.3366391,37.3421488 C24.8275482,37.3421488 14.3173554,37.3134986 3.80826446,37.3620973 C1.12286501,37.3785124 0,35.5922865 0,33.5415978 C0.00808080808,27.4405877 0.00808080808,21.338843 0,15.2363636 L0,10.8539945 Z M29.4214876,15.44573 L27.9404959,15.44573 C27.2969697,15.461157 26.9013774,15.815978 26.8881543,16.4628099 C26.8661157,17.4802571 26.8661157,18.497337 26.8881543,19.5140496 C26.9013774,20.1432507 27.2683196,20.522314 27.8975207,20.5366391 C28.9410468,20.5619835 29.9911846,20.5630854 31.030303,20.5366391 C31.6749311,20.5179063 31.9779614,20.1741047 31.984573,19.5349862 C31.9933884,18.5182736 31.9933884,17.5011938 31.984573,16.4837466 C31.9779614,15.8424242 31.5922865,15.4633609 30.9520661,15.4512397 C30.4429752,15.4391185 29.9338843,15.446832 29.4214876,15.44573 L29.4214876,15.44573 Z M19.5041322,31.7355372 C19.9988981,31.7355372 20.4958678,31.7421488 20.9884298,31.7355372 C21.6738292,31.7245179 22.0121212,31.4203857 22.0286501,30.7327824 C22.0521579,29.7153352 22.0521579,28.6982553 22.0286501,27.6815427 C22.015427,27.0269972 21.6418733,26.6523416 20.9950413,26.6413223 C19.9779614,26.6225895 18.9608815,26.6203857 17.9438017,26.6413223 C17.2947658,26.6556474 16.9410468,27.0446281 16.9355372,27.7002755 C16.9274564,28.6898072 16.9274564,29.6793388 16.9355372,30.6688705 C16.9355372,31.3553719 17.3212121,31.7256198 18.0176309,31.7344353 C18.5123967,31.7443526 19.0093664,31.7355372 19.5041322,31.7355372 Z M31.9834711,29.2429752 L31.9834711,29.2429752 C31.9834711,28.7206612 31.9911846,28.1983471 31.9834711,27.6760331 C31.9724518,27.0699725 31.6286501,26.6644628 31.031405,26.6479339 C29.9735537,26.6181818 28.9146006,26.6214876 27.8567493,26.6479339 C27.2881543,26.661157 26.9123967,27.0181818 26.8958678,27.5812672 C26.8650138,28.6523416 26.8650138,29.7241506 26.8958678,30.7966942 C26.9134986,31.3752066 27.3157025,31.7267218 27.8964187,31.7333333 C28.9410468,31.7458219 29.9856749,31.7458219 31.030303,31.7333333 C31.6330579,31.7245179 31.9647383,31.3807163 31.9801653,30.7735537 C31.9944904,30.2644628 31.984573,29.7520661 31.984573,29.246281 L31.9834711,29.2429752 Z M19.4931129,15.446832 C18.985124,15.446832 18.4760331,15.4391185 17.9680441,15.446832 C17.3256198,15.4578512 16.9454545,15.8336088 16.938843,16.4793388 C16.9285583,17.4820937 16.9285583,18.4852158 16.938843,19.4887052 C16.938843,20.1046832 17.2694215,20.5090909 17.876584,20.5267218 C18.9608815,20.5597796 20.0473829,20.5553719 21.1316804,20.5267218 C21.7024793,20.5090909 22.0011019,20.2093664 22.0132231,19.6451791 C22.0440771,18.5608815 22.0440771,17.4754821 22.0132231,16.3889807 C21.9966942,15.8071625 21.5966942,15.4688705 21.0137741,15.4567493 C20.5101928,15.4380165 20.0022039,15.446832 19.4931129,15.446832 Z M9.61873278,31.7355372 C10.0991736,31.7355372 10.5807163,31.7432507 11.062259,31.7355372 C11.723416,31.722314 12.1741047,31.3289256 12.1950413,30.6721763 C12.2280992,29.6550964 12.2225895,28.6358127 12.1950413,27.6198347 C12.1785124,27.015978 11.7961433,26.6556474 11.1856749,26.6435262 C10.15427,26.6236915 9.12286501,26.6214876 8.09146006,26.6435262 C7.46887052,26.6589532 7.11184573,27.0545455 7.10633609,27.6826446 C7.09752066,28.6868687 7.09752066,29.6907254 7.10633609,30.6942149 C7.11294766,31.337741 7.49421488,31.7190083 8.13443526,31.7333333 C8.62809917,31.7465565 9.12286501,31.7355372 9.61873278,31.7355372 Z M9.67052342,15.4446281 C9.16143251,15.4446281 8.6523416,15.4380165 8.14435262,15.4446281 C7.49862259,15.4545455 7.11294766,15.8292011 7.10633609,16.4694215 C7.0953168,17.4732782 7.09752066,18.477135 7.10633609,19.4809917 C7.10633609,20.1134986 7.45344353,20.5112948 8.08044077,20.5300275 C9.09788797,20.5601469 10.1153352,20.5601469 11.1327824,20.5300275 C11.7432507,20.5123967 12.1652893,20.1289256 12.1884298,19.5250689 C12.2280992,18.4683196 12.2203857,17.4071625 12.1884298,16.3504132 C12.168595,15.7895317 11.7663912,15.4600551 11.1966942,15.4479339 C10.6887052,15.4380165 10.1796143,15.446832 9.67052342,15.446832 L9.67052342,15.4446281 Z" id="Shape"></path>
                <path d="M6.96859504,0.0132231405 L6.96859504,1.65289256 C6.96859504,2.32727273 6.95757576,3.00275482 6.96859504,3.67713499 C6.9862259,4.44848485 7.51955923,4.97961433 8.23030303,4.97190083 C8.94104683,4.96418733 9.44242424,4.44517906 9.45454545,3.68815427 C9.47107438,2.64132231 9.45454545,1.59449036 9.45454545,0.547658402 C9.45454545,0.384573003 9.45454545,0.21707989 9.45454545,0.0308539945 L29.3509642,0.0308539945 C29.3586777,0.186225895 29.3707989,0.332782369 29.3707989,0.479338843 C29.3707989,1.55371901 29.3630854,2.62809917 29.3774105,3.70247934 C29.3862259,4.32066116 29.7509642,4.78567493 30.292011,4.93553719 C30.7889807,5.07217631 31.369697,4.89256198 31.6286501,4.43636364 C31.7756817,4.15955659 31.8546301,3.85169545 31.8589532,3.53829201 C31.8842975,2.38347107 31.8688705,1.22424242 31.8688705,0.0958677686 C31.9184573,0.0539944904 31.938292,0.0209366391 31.9592287,0.0209366391 C33.4027548,0.0363636364 34.8561983,-0.0363636364 36.2887052,0.0980716253 C38.0165289,0.261157025 39.5030303,1.70358127 39.7884298,3.27162534 C39.8068383,3.35203245 39.8182673,3.43387933 39.8225895,3.51625344 C39.8269972,5.00385675 39.8295684,6.49146006 39.830303,7.97906336 C39.830303,8.04517906 39.8170799,8.11129477 39.8071625,8.19944904 L0.0297520661,8.19944904 C0.0198347107,8.10137741 7.37799578e-16,8.01101928 7.37799578e-16,7.92066116 C7.37799578e-16,6.51570248 7.37799578e-16,5.1107438 7.37799578e-16,3.70578512 C-0.0128160039,2.88731688 0.223112665,2.08423721 0.676584022,1.40275482 C1.24187328,0.580716253 2.01652893,0.0628099174 3.01267218,0.0253443526 C4.30413223,-0.0231404959 5.59889807,0.0132231405 6.96859504,0.0132231405 Z" id="Path"></path>
            </g>
        </g>
    </g>
</svg>