<?xml version="1.0" encoding="UTF-8" standalone="no"?>
<svg
   width="245.796"
   height="31.216"
   viewBox="0 0 245.796 31.216"
   version="1.1"
   id="svg5"
   xmlns="http://www.w3.org/2000/svg"
   xmlns:svg="http://www.w3.org/2000/svg">
  <defs
     id="defs9" />
  <path
     id="Path_1714"
     data-name="Path 1714"
     d="m 245.79601,20.581954 c -1.421,1.721663 -4.28335,3.405398 -10.132,3.405398 -6.27238,0 -11.6039,-2.690274 -11.6039,-8.617574 0,-4.806042 3.99748,-8.1411308 11.89901,-8.1411308 4.46374,0 7.10406,1.1101545 8.67678,2.3896074 a 6.8792566,6.8792566 0 0 1 1.01209,1.0028394 l -3.74863,2.384981 c -0.30991,-0.508821 -1.73368,-2.174052 -5.72654,-2.174052 -5.2353,0 -7.43803,2.191629 -7.43803,4.868026 0,2.938209 3.10103,4.685777 7.22433,4.685777 3.56544,0 5.33984,-1.334036 6.00501,-2.274891 z M 202.90058,7.5949982 V 23.621001 h 18.95865 V 20.012999 H 207.8167 v -3.166716 h 11.81019 V 13.885872 H 207.8167 v -2.693974 h 13.71688 V 7.5894474 Z M 177.41142,11.197448 V 7.5949982 h 22.39645 v 3.6024498 h -8.74063 v 12.423553 h -4.91797 V 11.199299 Z M 165.19048,7.5949982 154.85216,23.621001 h 5.37686 l 2.07228,-3.428527 h 10.64915 l 2.04639,3.428527 h 5.34446 L 170.14639,7.5949982 Z m 5.585,8.9950248 h -6.21224 l 3.10381,-5.057678 z M 135.38653,11.197448 V 7.5949982 h 22.40199 v 3.6024498 h -8.74338 v 12.423553 h -4.92078 V 11.199299 Z M 123.97599,7.5949982 113.6349,23.621001 h 5.38055 l 2.07413,-3.428527 h 10.64639 l 2.0436,3.428527 h 5.34447 L 128.93468,7.5949982 Z m 5.58222,8.9950248 h -6.21224 l 3.10751,-5.057678 z M 102.95337,7.5949982 c 6.19187,0 11.68529,2.0056789 11.68529,7.9209498 0,5.587778 -5.00587,8.105053 -11.52433,8.105053 H 92.990653 V 7.5968485 Z m 6.76546,7.9616558 c 0,-3.093629 -2.03529,-4.359206 -8.48898,-4.359206 h -3.322137 v 8.820177 h 3.322137 c 6.524,0 8.48898,-1.512585 8.48898,-4.460971"
     fill="#424849"
     style="stroke-width:0.925129" />
  <path
     id="Path_1715"
     data-name="Path 1715"
     d="M 0.007,10.568 C -0.24,4.262 6.089,1.724 12.107,1.48 19.636,1.168 24.307,3.966 28.797,7.454 28.007,8.129 24.277,8.742 22.112,7.322 18.084,4.681 15.725,4.074 14.256,3.896 8.723,3.224 3.697,4.681 3.084,6.935 2.106,10.514 10.118,12.035 16.8,11.678 32.161,10.847 36.063,2.304 51.4,0.26 62.553,-1.224 68.309,3.775 68.875,9.669 a 6.078,6.078 0 0 1 -2.762,5.308 7.114,7.114 0 0 1 2.775,5.661 c 0.247,6.307 -6.079,8.845 -12.1,9.092 -7.527,0.307 -12.2,-2.491 -16.691,-5.977 0.8,-0.675 4.521,-1.288 6.686,0.13 4.031,2.641 6.389,3.251 7.856,3.43 5.537,0.669 10.562,-0.785 11.176,-3.036 C 66.793,20.693 58.775,19.171 52.099,19.53 36.737,20.358 32.836,28.901 17.49,30.947 6.34,32.435 0.582,27.432 0.018,21.536 a 6.064,6.064 0 0 1 2.759,-5.3 7.129,7.129 0 0 1 -2.775,-5.664 m 65.1,3.711 C 65.982,9.158 59.875,6.459 51.802,7.398 40.748,8.683 29.36,19.27 14.875,19.27 c -5.464,0 -8.91,-1 -11.094,-2.33 -0.873,5.115 5.23,7.816 13.3,6.875 11.058,-1.283 23.676,-11.879 36.927,-11.87 5.462,0 8.913,1.006 11.094,2.338"
     fill="#ed1d24"
     style="fill:#4a99ff;fill-opacity:1" />
</svg>
